<?xml version="1.0" encoding="utf-8"?>
<!-- Generator: Adobe Illustrator 24.1.1, SVG Export Plug-In . SVG Version: 6.00 Build 0)  -->
<svg version="1.1" id="Capa_1" xmlns="http://www.w3.org/2000/svg" xmlns:xlink="http://www.w3.org/1999/xlink" x="0px" y="0px"
	 viewBox="0 0 603.55 676.33" style="enable-background:new 0 0 603.55 676.33;" xml:space="preserve">
<style type="text/css">
	.st0{opacity:0.05;fill:#FFFFFF;}
	.st1{opacity:0.05;}
	.st2{fill:#FFFFFF;}
</style>
<path class="st0" d="M280.84,9.52l-23.07,37.06c-0.17,0.27-0.42,0.43-0.73,0.48c-0.32,0.05-0.6-0.03-0.84-0.24l-29.06-25
	c-4.64-3.99-11.13-4.71-16.54-1.83c-5.4,2.88-8.43,8.67-7.7,14.75l8.18,68.4L392.86,81.4l-8.11-68.39l0-0.01
	C384.02,6.92,379.73,2,373.8,0.48c-5.93-1.53-12.07,0.7-15.65,5.67L336,36.98c-0.19,0.26-0.44,0.41-0.76,0.43
	c-0.32,0.03-0.6-0.07-0.83-0.3l-30.72-30.3c-3.21-3.16-7.61-4.67-12.08-4.14C287.15,3.21,283.22,5.7,280.84,9.52z M336.56,53.02
	c4.87-0.41,9.3-2.93,12.16-6.9l20.76-28.9l5.99,50.49L224.76,85.74l-6.04-50.49l27.25,23.45c3.7,3.19,8.6,4.59,13.42,3.85
	c4.83-0.74,9.08-3.54,11.66-7.69l22.46-36.08l29.9,29.48C326.9,51.7,331.69,53.43,336.56,53.02z"/>
<g class="st1">
	<path class="st2" d="M602.07,310.27c-4.38-7.25-108.69-177.86-225.85-198.72c-55.79-9.93-119.61,4.96-184.55,43.08
		C138.8,185.64,86.65,230.95,44.79,282.2c-22.92,28.06-45.87,60.94-32.67,98.93c-11.07,12.76-26.17,47.84,14.71,132.2
		c1.77,3.66,5.43,5.79,9.25,5.79c1.5,0,3.03-0.33,4.47-1.03c5.1-2.47,7.23-8.61,4.76-13.72C2.87,416.8,27.42,394.5,29.57,392.78
		c4.97-2.44,6.41-8.08,4.07-13.14c-12.6-27.31,1.01-52.56,27.05-84.45c40.35-49.41,90.55-93.04,141.36-122.85
		c60.67-35.61,119.65-49.64,170.56-40.57c70.93,12.63,139.64,89.52,178.75,141.29c-43.24-25.9-89.56-41.08-138.32-45.25
		c-53.84-4.61-110.59,4.16-168.67,26.06C146.09,290.91,78.79,352,75.98,354.59c-3.95,3.62-4.42,9.66-1.11,13.88
		c3.31,4.22,9.34,5.17,13.8,2.2c0.58-0.39,14.46-9.44,28.82-3.04c12.24,5.46,28.57,23.73,36.79,79.79
		c0.82,5.61,6.03,9.49,11.65,8.67c5.61-0.82,9.49-6.04,8.67-11.65c-7.72-52.65-24.22-84.85-49.05-95.7
		c-2.23-0.97-4.44-1.74-6.62-2.32c28.41-21.05,75.71-51.93,133.27-73.54c125.52-47.13,238.06-30.11,334.51,50.59
		c3.85,3.22,9.46,3.19,13.27-0.08C603.78,320.11,604.66,314.56,602.07,310.27z"/>
	<path class="st2" d="M514.63,399.67c-1.82,0-3.63,0.1-5.41,0.25c-7.64-0.32-15.43,0.37-23.1,2.17
		c-32.27,7.57-56.15,32.4-62.16,60.97c-35.39-3.55-68.89,1.43-84.12,4.3c-12.02-23.34-36.35-39.35-64.36-39.35
		c-1.85,0-3.69,0.09-5.51,0.23c-8-0.35-16.26,0.33-24.57,2.16c-37.95,8.36-64.94,38.03-67.24,70.53
		c-13.31,3.51-42.09,11.15-70.9,19.08c-82.33,22.68-84.17,25.17-86.95,28.93c-4.28,5.81-13.71,31.75-18.95,46.69
		c-1.88,5.35,0.94,11.21,6.29,13.09c1.12,0.39,2.27,0.58,3.4,0.58c4.24,0,8.21-2.65,9.69-6.87c5.44-15.51,12.39-33.87,15.3-39.81
		c13.09-5.46,80.53-24.24,144.1-40.99c4.77,18.03,17.08,33.07,34.95,42.53c12.32,6.52,26.31,9.86,40.74,9.86
		c5.3,0,10.65-0.46,16-1.37c1.21,0.06,2.43,0.09,3.65,0.09c30.25,0,56.21-18.66,67-45.07c3.45-8.43,5.36-17.64,5.36-27.29
		c0-4.55-0.44-8.99-1.25-13.3c32.57-5.58,132.4-16.88,163.54,47.09c17.38,35.72,9.39,77.92-19.45,102.62
		c-31.96,27.38-77.74,25.19-122.47-5.87c-2.32-1.61-5.08-2.13-7.66-1.67c-2.59,0.46-5.01,1.92-6.63,4.25
		c-3.23,4.66-2.08,11.06,2.58,14.29c27.29,18.95,54.76,28.56,81.69,28.55c0.21,0,0.43,0,0.64,0c24.53-0.14,47.08-8.42,65.21-23.95
		c31.67-27.13,43.25-70.98,30.85-111.21c27.96-9.14,48.32-36.68,48.32-69.14C583.22,432.13,552.45,399.67,514.63,399.67z
		 M444.27,466.08c0.81-3.49,1.99-6.9,3.52-10.18c-0.75,3.45-1.26,6.99-1.52,10.61C445.6,466.37,444.93,466.22,444.27,466.08z
		 M466.58,472.03c0-28.58,21.56-51.83,48.05-51.83c26.49,0,48.05,23.25,48.05,51.83c0,23.96-15.16,44.17-35.67,50.08
		c-13.67-25.86-35.83-41.19-60.43-49.91C466.59,472.15,466.58,472.09,466.58,472.03z M206.02,480.11
		c-1.88,6.43-2.91,13.23-2.91,20.26c0,14.14,4.09,27.33,11.13,38.49c-7.54-6.57-12.64-14.89-14.71-24.26
		C196.9,502.69,199.53,490.62,206.02,480.11z M223.64,500.38c0-28.58,23.25-51.83,51.83-51.83c28.58,0,51.83,23.25,51.83,51.83
		s-23.25,51.83-51.83,51.83C246.89,552.21,223.64,528.96,223.64,500.38z"/>
	<circle class="st2" cx="514.63" cy="472.24" r="14.37"/>
	
		<ellipse transform="matrix(0.9871 -0.1602 0.1602 0.9871 -76.5942 50.5872)" class="st2" cx="275.47" cy="500.37" rx="14.37" ry="14.37"/>
	<path class="st2" d="M198.61,431.49c0.24,0.02,0.48,0.03,0.72,0.03c2.57,0,5.06-0.97,6.96-2.72c14.8-13.66,69.83-36.03,89.78-43.5
		c5.28-1.98,7.98-7.84,6.05-13.14c-13.98-38.3-22.89-38.3-27.67-38.3c-11.21,0-78.12,35.14-89.24,44.47
		c-14.96,12.57-6.03,34.47,6.16,49.41C193.17,429.94,195.79,431.29,198.61,431.49z M198.43,394.06
		c10.09-8.48,58.46-32.65,73.59-38.54c1.95,3.1,4.57,8.39,7.1,14.3c-18.31,7.18-56.16,22.77-77.32,36.73
		C198.51,400.56,197.04,395.22,198.43,394.06z"/>
	<path class="st2" d="M442.35,339.95c-2.19,7.92-3.84,15.76-3.91,16.09c-1.04,4.94,1.68,9.91,6.4,11.7l50.08,19.03
		c1.18,0.45,2.41,0.67,3.65,0.67c0.43,0,0.86-0.04,1.29-0.09c0.39,0.04,0.78,0.09,1.17,0.09c4.97,0,9.34-3.62,10.13-8.69
		c0.39-2.49,9.04-61.58-33.15-107.87c-3.82-4.19-10.31-4.49-14.5-0.67c-4.19,3.82-4.49,10.31-0.67,14.5
		c11.55,12.67,18.54,26.69,22.73,39.85c-12.26-4.17-25.08-7.13-25.28-7.16C448.99,316.01,445.3,329.28,442.35,339.95z
		 M490.58,363.16l-30.09-11.44c1.13-4.58,2.37-9.05,3.45-12.36c8.17,2.32,21.02,6.49,26.14,8.92
		C490.66,351.49,490.92,357.47,490.58,363.16z"/>
</g>
</svg>
