<?xml version="1.0" encoding="utf-8"?>
<!-- Generator: Adobe Illustrator 24.1.1, SVG Export Plug-In . SVG Version: 6.00 Build 0)  -->
<svg version="1.1" id="Capa_1" xmlns="http://www.w3.org/2000/svg" xmlns:xlink="http://www.w3.org/1999/xlink" x="0px" y="0px"
	 viewBox="0 0 603.55 676.33" style="enable-background:new 0 0 603.55 676.33;" xml:space="preserve">
<style type="text/css">
	.st0{opacity:0.05;fill:#FFFFFF;enable-background:new    ;}
	.st1{opacity:0.05;}
	.st2{fill:#FFFFFF;}
</style>
<path class="st0" d="M295.57,203.3l-16.37,26.29c-0.12,0.19-0.3,0.31-0.52,0.34c-0.23,0.04-0.43-0.02-0.6-0.17l-20.61-17.73
	c-3.29-2.83-7.9-3.34-11.73-1.3c-3.83,2.04-5.98,6.15-5.46,10.46l5.8,48.52l128.95-15.42l-5.75-48.52v-0.01
	c-0.52-4.31-3.56-7.8-7.77-8.88c-4.21-1.09-8.56,0.5-11.1,4.02l-15.71,21.87c-0.13,0.18-0.31,0.29-0.54,0.31
	c-0.23,0.02-0.43-0.05-0.59-0.21l-21.79-21.49c-2.28-2.24-5.4-3.31-8.57-2.94C300.04,198.83,297.25,200.59,295.57,203.3z
	 M335.09,234.16c3.45-0.29,6.6-2.08,8.63-4.89l14.73-20.5l4.25,35.82l-106.91,12.79l-4.28-35.82l19.33,16.64
	c2.62,2.26,6.1,3.26,9.52,2.73c3.43-0.52,6.44-2.51,8.27-5.46l15.93-25.59l21.21,20.91C328.24,233.22,331.64,234.45,335.09,234.16z"
	/>
<g class="st1">
	<path class="st2" d="M523.44,416.65c-3.11-5.14-77.1-126.17-160.22-140.97c-39.58-7.04-84.85,3.52-130.92,30.56
		c-37.51,22-74.5,54.14-104.2,90.5c-16.26,19.91-32.54,43.23-23.18,70.18c-7.85,9.05-18.56,33.94,10.44,93.78
		c1.26,2.6,3.85,4.11,6.56,4.11c1.06,0,2.15-0.23,3.17-0.73c3.62-1.75,5.13-6.11,3.38-9.73c-30.11-62.12-12.69-77.94-11.17-79.16
		c3.53-1.73,4.55-5.73,2.89-9.32c-8.94-19.37,0.72-37.29,19.19-59.91c28.62-35.05,64.24-66,100.28-87.15
		c43.04-25.26,84.88-35.21,120.99-28.78c50.32,8.96,99.06,63.5,126.8,100.23c-30.67-18.37-63.53-29.14-98.12-32.1
		c-38.19-3.27-78.45,2.95-119.65,18.49c-69.72,26.28-117.46,69.61-119.45,71.45c-2.8,2.57-3.14,6.85-0.79,9.85
		c2.35,2.99,6.63,3.67,9.79,1.56c0.41-0.28,10.26-6.7,20.44-2.16c8.68,3.87,20.27,16.83,26.1,56.6c0.58,3.98,4.28,6.73,8.26,6.15
		c3.98-0.58,6.73-4.28,6.15-8.26c-5.48-37.35-17.18-60.19-34.8-67.89c-1.58-0.69-3.15-1.23-4.7-1.65
		c20.15-14.93,53.71-36.84,94.54-52.17c89.04-33.43,168.88-21.36,237.3,35.89c2.73,2.28,6.71,2.26,9.41-0.06
		C524.66,423.63,525.28,419.7,523.44,416.65z"/>
	<path class="st2" d="M461.41,480.07c-1.29,0-2.58,0.07-3.84,0.18c-5.42-0.23-10.95,0.26-16.39,1.54
		c-22.89,5.37-39.83,22.98-44.1,43.25c-25.11-2.52-48.87,1.01-59.67,3.05c-8.53-16.56-25.79-27.91-45.66-27.91
		c-1.31,0-2.62,0.06-3.91,0.16c-5.68-0.25-11.53,0.23-17.43,1.53c-26.92,5.93-46.07,26.98-47.7,50.03
		c-9.44,2.49-29.86,7.91-50.3,13.54c-58.4,16.09-59.71,17.86-61.68,20.52c-3.04,4.12-9.73,22.52-13.44,33.12
		c-1.33,3.8,0.67,7.95,4.46,9.29c0.79,0.28,1.61,0.41,2.41,0.41c3.01,0,5.82-1.88,6.87-4.87c3.86-11,8.79-24.03,10.85-28.24
		c9.29-3.87,57.13-17.2,102.22-29.08c3.38,12.79,12.12,23.46,24.79,30.17c8.74,4.63,18.66,6.99,28.9,6.99
		c3.76,0,7.56-0.33,11.35-0.97c0.86,0.04,1.72,0.06,2.59,0.06c21.46,0,39.88-13.24,47.53-31.97c2.45-5.98,3.8-12.51,3.8-19.36
		c0-3.23-0.31-6.38-0.89-9.43c23.1-3.96,93.92-11.97,116.01,33.41c12.33,25.34,6.66,55.28-13.8,72.8
		c-22.67,19.42-55.15,17.87-86.88-4.16c-1.65-1.14-3.6-1.51-5.43-1.18c-1.84,0.33-3.55,1.36-4.7,3.01
		c-2.29,3.31-1.48,7.85,1.83,10.14c19.36,13.44,38.85,20.26,57.95,20.25c0.15,0,0.31,0,0.45,0c17.4-0.1,33.4-5.97,46.26-16.99
		c22.47-19.25,30.68-50.35,21.88-78.89c19.83-6.48,34.28-26.02,34.28-49.05C510.07,503.1,488.24,480.07,461.41,480.07z
		 M411.5,527.18c0.57-2.48,1.41-4.89,2.5-7.22c-0.53,2.45-0.89,4.96-1.08,7.53C412.45,527.39,411.97,527.28,411.5,527.18z
		 M427.33,531.4c0-20.27,15.29-36.77,34.09-36.77c18.79,0,34.09,16.49,34.09,36.77c0,17-10.75,31.33-25.3,35.53
		c-9.7-18.34-25.42-29.22-42.87-35.41C427.34,531.49,427.33,531.45,427.33,531.4z M242.49,537.14c-1.33,4.56-2.06,9.39-2.06,14.37
		c0,10.03,2.9,19.39,7.9,27.3c-5.35-4.66-8.97-10.56-10.44-17.21C236.02,553.15,237.88,544.59,242.49,537.14z M254.99,551.52
		c0-20.27,16.49-36.77,36.77-36.77s36.77,16.49,36.77,36.77c0,20.27-16.49,36.77-36.77,36.77
		C271.48,588.28,254.99,571.79,254.99,551.52z"/>
	<circle class="st2" cx="461.41" cy="531.55" r="10.19"/>
	<ellipse class="st2" cx="291.76" cy="551.51" rx="10.19" ry="10.19"/>
	<path class="st2" d="M237.23,502.64c0.17,0.01,0.34,0.02,0.51,0.02c1.82,0,3.59-0.69,4.94-1.93c10.5-9.69,49.54-25.56,63.69-30.86
		c3.75-1.4,5.66-5.56,4.29-9.32c-9.92-27.17-16.24-27.17-19.63-27.17c-7.95,0-55.42,24.93-63.31,31.55
		c-10.61,8.92-4.28,24.45,4.37,35.05C233.37,501.55,235.23,502.5,237.23,502.64z M237.1,476.09c7.16-6.02,41.47-23.16,52.2-27.34
		c1.38,2.2,3.24,5.95,5.04,10.14c-12.99,5.09-39.84,16.15-54.85,26.06C237.16,480.7,236.12,476.92,237.1,476.09z"/>
	<path class="st2" d="M410.14,437.71c-1.55,5.62-2.72,11.18-2.77,11.41c-0.74,3.5,1.19,7.03,4.54,8.3l35.53,13.5
		c0.84,0.32,1.71,0.48,2.59,0.48c0.31,0,0.61-0.03,0.92-0.06c0.28,0.03,0.55,0.06,0.83,0.06c3.53,0,6.63-2.57,7.19-6.16
		c0.28-1.77,6.41-43.68-23.52-76.52c-2.71-2.97-7.31-3.19-10.29-0.48c-2.97,2.71-3.19,7.31-0.48,10.29
		c8.19,8.99,13.15,18.93,16.12,28.27c-8.7-2.96-17.79-5.06-17.93-5.08C414.85,420.72,412.23,430.14,410.14,437.71z M444.35,454.17
		l-21.35-8.12c0.8-3.25,1.68-6.42,2.45-8.77c5.8,1.65,14.91,4.6,18.54,6.33C444.41,445.89,444.59,450.14,444.35,454.17z"/>
</g>
</svg>
