<?xml version="1.0" encoding="utf-8"?>
<!-- Generator: Adobe Illustrator 24.1.1, SVG Export Plug-In . SVG Version: 6.00 Build 0)  -->
<svg version="1.1" id="Capa_1" xmlns="http://www.w3.org/2000/svg" xmlns:xlink="http://www.w3.org/1999/xlink" x="0px" y="0px"
	 viewBox="0 0 1099.35 244.56" style="enable-background:new 0 0 1099.35 244.56;" xml:space="preserve">
<style type="text/css">
	.st0{fill:url(#SVGID_1_);}
	.st1{fill:url(#SVGID_2_);}
	.st2{fill:url(#SVGID_3_);}
	.st3{fill:url(#SVGID_4_);}
	.st4{fill:#101B5A;}
	.st5{fill:#8C98A9;}
</style>
<linearGradient id="SVGID_1_" gradientUnits="userSpaceOnUse" x1="300.3067" y1="36.3031" x2="538.0886" y2="448.1533">
	<stop  offset="0.1106" style="stop-color:#101B5A"/>
	<stop  offset="0.1696" style="stop-color:#183E77"/>
	<stop  offset="0.2838" style="stop-color:#277DA9"/>
	<stop  offset="0.3805" style="stop-color:#31ABCF"/>
	<stop  offset="0.4547" style="stop-color:#38C7E5"/>
	<stop  offset="0.4975" style="stop-color:#3AD2EE"/>
</linearGradient>
<path class="st0" d="M366.43,27.78h38.51v180.3h-37.47c-25.67-65.57-40.5-105.11-44.49-118.64c3.64,13.7,5.46,37.29,5.46,70.77
	v47.87h-38.51V27.78h38.51l23.68,60.36c10.06,25.85,16.82,45.45,20.29,58.8c-3.99-16.82-5.99-41.45-5.99-73.89V27.78z"/>
<linearGradient id="SVGID_2_" gradientUnits="userSpaceOnUse" x1="398.6134" y1="8.7878" x2="630.5587" y2="410.5288">
	<stop  offset="0.1106" style="stop-color:#101B5A"/>
	<stop  offset="0.1696" style="stop-color:#183E77"/>
	<stop  offset="0.2838" style="stop-color:#277DA9"/>
	<stop  offset="0.3805" style="stop-color:#31ABCF"/>
	<stop  offset="0.4547" style="stop-color:#38C7E5"/>
	<stop  offset="0.4975" style="stop-color:#3AD2EE"/>
</linearGradient>
<path class="st1" d="M426.66,167.53v-65.41c0-12.23,3.78-21.76,11.34-28.6c7.56-6.84,18.99-10.26,34.28-10.26
	c29.45,0,44.17,12.96,44.17,38.86v49h-54.79v13.52c0,4.83,1.33,8.25,3.98,10.26c2.65,2.01,8.53,3.02,17.62,3.02
	c9.09,0,19.03-1.61,29.81-4.83v31.86c-11.27,3.06-23.33,4.59-36.21,4.59C443.39,209.53,426.66,195.53,426.66,167.53z M461.66,123.36
	h21.24V102.6c0-6.11-3.54-9.17-10.62-9.17c-7.08,0-10.62,3.06-10.62,9.17V123.36z"/>
<linearGradient id="SVGID_3_" gradientUnits="userSpaceOnUse" x1="483.2219" y1="-15.5129" x2="705.78" y2="369.969">
	<stop  offset="0.1106" style="stop-color:#101B5A"/>
	<stop  offset="0.1696" style="stop-color:#183E77"/>
	<stop  offset="0.2838" style="stop-color:#277DA9"/>
	<stop  offset="0.3805" style="stop-color:#31ABCF"/>
	<stop  offset="0.4547" style="stop-color:#38C7E5"/>
	<stop  offset="0.4975" style="stop-color:#3AD2EE"/>
</linearGradient>
<path class="st2" d="M599.72,64.95h4.1V98.5h-5.55c-9.01,0-16.9,1.61-23.65,4.83v104.76h-36.45V65.67h34.28v9.66
	c8.21-4.99,13.96-7.97,17.26-8.93C593,65.43,596.34,64.95,599.72,64.95z"/>
<linearGradient id="SVGID_4_" gradientUnits="userSpaceOnUse" x1="580.7013" y1="-37.172" x2="800.888" y2="344.2027">
	<stop  offset="0.1106" style="stop-color:#101B5A"/>
	<stop  offset="0.1696" style="stop-color:#183E77"/>
	<stop  offset="0.2838" style="stop-color:#277DA9"/>
	<stop  offset="0.3805" style="stop-color:#31ABCF"/>
	<stop  offset="0.4547" style="stop-color:#38C7E5"/>
	<stop  offset="0.4975" style="stop-color:#3AD2EE"/>
</linearGradient>
<path class="st3" d="M673.82,27.78h36.69v180.3h-35.48v-10.14c-5.79,7.4-14.04,11.1-24.74,11.1c-10.7,0-18.71-2.9-24.02-8.69
	c-5.31-5.79-7.97-13.84-7.97-24.14v-67.34c0-13.52,3.7-24.1,11.1-31.74c7.4-7.64,18.66-11.46,33.79-11.46h10.62V27.78z
	 M674.06,98.02h-7.96c-7.57,0-11.34,4.02-11.34,12.07v59.62c0,4.19,2.41,6.28,7.24,6.28c4.83,0,8.85-0.97,12.07-2.9V98.02z"/>
<path class="st4" d="M744.3,47.33h12.07v160.75H744.3V47.33z M807.53,47.33h13.27l-35,80.62l36.69,80.14h-13.52l-36.45-79.65
	L807.53,47.33z"/>
<path class="st4" d="M856.29,53.6c-5.31,0-7.97-2.98-7.97-8.93c0-5.95,2.66-8.93,7.97-8.93s7.97,2.98,7.97,8.93
	C864.25,50.63,861.6,53.6,856.29,53.6z M850.25,72.19h12.07v135.89h-12.07V72.19z"/>
<path class="st4" d="M915.18,78.46c11.26-4.5,21.36-6.76,30.29-6.76c8.93,0,16.33,2.82,22.21,8.45c5.87,5.63,8.81,13.52,8.81,23.66
	v104.27h-12.07V103.81c0-14-6.92-21-20.76-21c-8.69,0-18.1,2.41-28.24,7.24v118.03h-12.07V72.19h11.83V78.46z"/>
<path class="st4" d="M1099.35,75.81h-7.96c-4.83,0-8.93,1.53-12.31,4.59c5.47,5.95,8.21,13.92,8.21,23.89v18.83
	c0,10.78-3.22,19.23-9.66,25.34c-6.44,6.12-16.09,9.17-28.96,9.17c-10.46,0-15.69,4.91-15.69,14.72c0,4.34,1.33,7.52,3.98,9.53
	c2.66,2.01,7.12,3.02,13.4,3.02h14.24c21.56,0,32.34,9.17,32.34,27.52v2.41c0,19.47-14,29.21-42,29.21h-9.9
	c-15.29,0-27.27-2.26-35.96-6.76v-12.07c9.81,5.31,21.8,7.96,35.96,7.96h9.66c20.11,0,30.17-6.03,30.17-18.1v-2.65
	c0-5.63-1.33-9.81-3.98-12.55c-2.66-2.73-8.01-4.1-16.05-4.1h-14.48c-9.01,0-16.01-1.77-21-5.31c-4.99-3.54-7.48-8.61-7.48-15.21
	v-3.86c0-4.02,1.12-7.36,3.38-10.02c2.25-2.65,5.15-4.47,8.69-5.43c-15.93-4.18-23.89-15.12-23.89-32.83v-18.83
	c0-10.78,3.22-19.23,9.65-25.34c6.43-6.11,15.57-9.17,27.4-9.17c11.83,0,21.12,2.33,27.88,7c2.9-8.85,9.81-13.28,20.76-13.28h3.62
	V75.81z M1075.21,123.12v-18.83c0-7.88-2.09-13.8-6.28-17.74c-4.19-3.94-10.94-5.91-20.28-5.91c-9.33,0-16.09,1.97-20.28,5.91
	c-4.19,3.94-6.28,9.86-6.28,17.74v18.83c0,7.89,2.09,13.8,6.28,17.74c4.18,3.94,10.94,5.91,20.28,5.91c9.33,0,16.09-1.97,20.28-5.91
	C1073.12,136.92,1075.21,131,1075.21,123.12z"/>
<g>
	<path class="st5" d="M248.93,83.4c-1.81-3-44.94-73.54-93.38-82.16c-23.07-4.11-49.45,2.05-76.31,17.81
		C57.39,31.87,35.83,50.61,18.52,71.8C9.04,83.4-0.45,96.99,5.01,112.7c-4.58,5.28-10.82,19.78,6.08,54.66
		c0.73,1.51,2.25,2.39,3.82,2.39c0.62,0,1.25-0.14,1.85-0.43c2.11-1.02,2.99-3.56,1.97-5.67c-17.55-36.21-7.4-45.43-6.51-46.14
		c2.05-1.01,2.65-3.34,1.68-5.43C8.7,100.79,14.33,90.35,25.1,77.16C41.78,56.74,62.53,38.7,83.54,26.37
		c25.08-14.72,49.47-20.52,70.52-16.77c29.33,5.22,57.74,37.01,73.9,58.42c-17.88-10.71-37.03-16.98-57.19-18.71
		c-22.26-1.91-45.72,1.72-69.74,10.77C60.4,75.4,32.58,100.66,31.41,101.72c-1.63,1.5-1.83,3.99-0.46,5.74
		c1.37,1.75,3.86,2.14,5.71,0.91c0.24-0.16,5.98-3.9,11.92-1.26c5.06,2.26,11.81,9.81,15.21,32.99c0.34,2.32,2.49,3.92,4.82,3.58
		c2.32-0.34,3.92-2.5,3.58-4.82C68.99,117.1,62.17,103.79,51.9,99.3c-0.92-0.4-1.84-0.72-2.74-0.96c11.75-8.7,31.3-21.47,55.1-30.41
		c51.9-19.49,98.43-12.45,138.3,20.92c1.59,1.33,3.91,1.32,5.49-0.03C249.64,87.47,250,85.18,248.93,83.4z"/>
	<path class="st5" d="M212.78,120.36c-0.75,0-1.5,0.04-2.24,0.1c-3.16-0.13-6.38,0.15-9.55,0.9c-13.34,3.13-23.22,13.4-25.7,25.21
		c-14.63-1.47-28.48,0.59-34.78,1.78c-4.97-9.65-15.03-16.27-26.61-16.27c-0.77,0-1.52,0.04-2.28,0.1
		c-3.31-0.14-6.72,0.14-10.16,0.89c-15.69,3.46-26.85,15.72-27.8,29.16c-5.5,1.45-17.4,4.61-29.31,7.89
		c-34.04,9.38-34.8,10.41-35.95,11.96c-1.77,2.4-5.67,13.13-7.84,19.3c-0.78,2.21,0.39,4.63,2.6,5.41c0.46,0.16,0.94,0.24,1.4,0.24
		c1.75,0,3.39-1.09,4.01-2.84c2.25-6.41,5.12-14,6.32-16.46c5.41-2.26,33.29-10.02,59.58-16.95c1.97,7.46,7.06,13.67,14.45,17.58
		c5.09,2.7,10.88,4.08,16.84,4.08c2.19,0,4.4-0.19,6.61-0.57c0.5,0.02,1,0.04,1.51,0.04c12.51,0,23.24-7.72,27.7-18.64
		c1.42-3.48,2.22-7.29,2.22-11.28c0-1.88-0.18-3.72-0.52-5.5c13.47-2.31,54.74-6.98,67.62,19.47c7.19,14.77,3.88,32.22-8.04,42.43
		c-13.21,11.32-32.14,10.41-50.63-2.43c-0.96-0.67-2.1-0.88-3.17-0.69c-1.07,0.19-2.07,0.79-2.74,1.76
		c-1.34,1.93-0.86,4.57,1.07,5.91c11.28,7.84,22.64,11.81,33.78,11.81c0.09,0,0.18,0,0.26,0c10.14-0.06,19.46-3.48,26.96-9.9
		c13.09-11.22,17.88-29.35,12.76-45.98c11.56-3.78,19.98-15.16,19.98-28.59C241.14,133.78,228.42,120.36,212.78,120.36z
		 M183.69,147.82c0.33-1.44,0.82-2.85,1.46-4.21c-0.31,1.43-0.52,2.89-0.63,4.39C184.24,147.94,183.96,147.88,183.69,147.82z
		 M192.91,150.28c0-11.82,8.91-21.43,19.87-21.43s19.87,9.61,19.87,21.43c0,9.91-6.27,18.26-14.75,20.71
		c-5.65-10.69-14.81-17.03-24.99-20.63C192.91,150.33,192.91,150.31,192.91,150.28z M85.18,153.62c-0.78,2.66-1.2,5.47-1.2,8.38
		c0,5.85,1.69,11.3,4.6,15.91c-3.12-2.72-5.23-6.16-6.08-10.03C81.41,162.96,82.5,157.97,85.18,153.62z M92.47,162
		c0-11.82,9.61-21.43,21.43-21.43c11.82,0,21.43,9.61,21.43,21.43s-9.61,21.43-21.43,21.43C102.08,183.43,92.47,173.82,92.47,162z"
		/>
	<circle class="st5" cx="212.78" cy="150.37" r="5.94"/>
	<ellipse transform="matrix(0.9871 -0.1602 0.1602 0.9871 -24.479 20.3362)" class="st5" cx="113.9" cy="162" rx="5.94" ry="5.94"/>
	<path class="st5" d="M82.12,133.52c0.1,0.01,0.2,0.01,0.3,0.01c1.06,0,2.09-0.4,2.88-1.13c6.12-5.65,28.87-14.9,37.12-17.99
		c2.18-0.82,3.3-3.24,2.5-5.43c-5.78-15.83-9.46-15.83-11.44-15.83c-4.63,0-32.3,14.53-36.9,18.39c-6.19,5.2-2.49,14.25,2.55,20.43
		C79.87,132.88,80.95,133.44,82.12,133.52z M82.04,118.04c4.17-3.5,24.17-13.5,30.43-15.94c0.8,1.28,1.89,3.47,2.94,5.91
		c-7.57,2.97-23.22,9.41-31.97,15.19C82.08,120.73,81.47,118.52,82.04,118.04z"/>
	<path class="st5" d="M182.89,95.67c-0.91,3.27-1.59,6.52-1.62,6.65c-0.43,2.04,0.69,4.1,2.65,4.84l20.71,7.87
		c0.49,0.19,1,0.28,1.51,0.28c0.18,0,0.36-0.01,0.53-0.04c0.16,0.02,0.32,0.04,0.48,0.04c2.06,0,3.86-1.5,4.19-3.59
		c0.16-1.03,3.74-25.46-13.71-44.6c-1.58-1.73-4.26-1.86-6-0.28c-1.73,1.58-1.86,4.26-0.28,6c4.78,5.24,7.66,11.04,9.4,16.48
		c-5.07-1.73-10.37-2.95-10.45-2.96C185.64,85.78,184.11,91.26,182.89,95.67z M202.84,105.27l-12.44-4.73
		c0.47-1.89,0.98-3.74,1.43-5.11c3.38,0.96,8.69,2.68,10.81,3.69C202.87,100.44,202.97,102.91,202.84,105.27z"/>
</g>
</svg>
