<?xml version="1.0" encoding="utf-8"?>
<!-- Generator: Adobe Illustrator 24.1.1, SVG Export Plug-In . SVG Version: 6.00 Build 0)  -->
<svg version="1.1" id="Capa_1" xmlns="http://www.w3.org/2000/svg" xmlns:xlink="http://www.w3.org/1999/xlink" x="0px" y="0px"
	 viewBox="0 0 384 85.24" style="enable-background:new 0 0 384 85.24;" xml:space="preserve">
<style type="text/css">
	.st0{fill:url(#SVGID_1_);}
	.st1{fill:url(#SVGID_2_);}
	.st2{fill:url(#SVGID_3_);}
	.st3{fill:url(#SVGID_4_);}
	.st4{fill:#101B5A;}
	.st5{fill:#8C98A9;}
</style>
<linearGradient id="SVGID_1_" gradientUnits="userSpaceOnUse" x1="104.8923" y1="233.8702" x2="187.948" y2="90.0134" gradientTransform="matrix(1 0 0 -1 0 246.5512)">
	<stop  offset="0.1106" style="stop-color:#101B5A"/>
	<stop  offset="0.1696" style="stop-color:#183E77"/>
	<stop  offset="0.2838" style="stop-color:#277DA9"/>
	<stop  offset="0.3805" style="stop-color:#31ABCF"/>
	<stop  offset="0.4547" style="stop-color:#38C7E5"/>
	<stop  offset="0.4975" style="stop-color:#3AD2EE"/>
</linearGradient>
<path class="st0" d="M127.99,9.7h13.45v62.98h-13.09c-8.97-22.9-14.15-36.71-15.54-41.44c1.27,4.79,1.91,13.03,1.91,24.72v16.72
	h-13.45V9.7h13.45l8.27,21.08c3.51,9.03,5.88,15.88,7.09,20.54c-1.39-5.88-2.09-14.48-2.09-25.81L127.99,9.7L127.99,9.7z"/>
<linearGradient id="SVGID_2_" gradientUnits="userSpaceOnUse" x1="139.2307" y1="243.4814" x2="220.2478" y2="103.1557" gradientTransform="matrix(1 0 0 -1 0 246.5512)">
	<stop  offset="0.1106" style="stop-color:#101B5A"/>
	<stop  offset="0.1696" style="stop-color:#183E77"/>
	<stop  offset="0.2838" style="stop-color:#277DA9"/>
	<stop  offset="0.3805" style="stop-color:#31ABCF"/>
	<stop  offset="0.4547" style="stop-color:#38C7E5"/>
	<stop  offset="0.4975" style="stop-color:#3AD2EE"/>
</linearGradient>
<path class="st1" d="M149.03,58.52V35.67c0-4.27,1.32-7.6,3.96-9.99c2.64-2.39,6.63-3.58,11.97-3.58c10.29,0,15.43,4.53,15.43,13.57
	v17.12h-19.14v4.72c0,1.69,0.46,2.88,1.39,3.58c0.93,0.7,2.98,1.05,6.15,1.05s6.65-0.56,10.41-1.69v11.13
	c-3.94,1.07-8.15,1.6-12.65,1.6C154.87,73.19,149.03,68.3,149.03,58.52z M161.25,43.09h7.42v-7.25c0-2.13-1.24-3.2-3.71-3.2
	c-2.47,0-3.71,1.07-3.71,3.2V43.09z"/>
<linearGradient id="SVGID_3_" gradientUnits="userSpaceOnUse" x1="168.7823" y1="251.9686" x2="246.5206" y2="117.3221" gradientTransform="matrix(1 0 0 -1 0 246.5512)">
	<stop  offset="0.1106" style="stop-color:#101B5A"/>
	<stop  offset="0.1696" style="stop-color:#183E77"/>
	<stop  offset="0.2838" style="stop-color:#277DA9"/>
	<stop  offset="0.3805" style="stop-color:#31ABCF"/>
	<stop  offset="0.4547" style="stop-color:#38C7E5"/>
	<stop  offset="0.4975" style="stop-color:#3AD2EE"/>
</linearGradient>
<path class="st2" d="M209.48,22.69h1.43v11.72h-1.94c-3.15,0-5.9,0.56-8.26,1.69v36.59h-12.73V22.94h11.97v3.37
	c2.87-1.74,4.88-2.78,6.03-3.12C207.13,22.85,208.29,22.69,209.48,22.69z"/>
<linearGradient id="SVGID_4_" gradientUnits="userSpaceOnUse" x1="202.8335" y1="259.5353" x2="279.7434" y2="126.3234" gradientTransform="matrix(1 0 0 -1 0 246.5512)">
	<stop  offset="0.1106" style="stop-color:#101B5A"/>
	<stop  offset="0.1696" style="stop-color:#183E77"/>
	<stop  offset="0.2838" style="stop-color:#277DA9"/>
	<stop  offset="0.3805" style="stop-color:#31ABCF"/>
	<stop  offset="0.4547" style="stop-color:#38C7E5"/>
	<stop  offset="0.4975" style="stop-color:#3AD2EE"/>
</linearGradient>
<path class="st3" d="M235.36,9.7h12.82v62.98h-12.39v-3.54c-2.02,2.58-4.9,3.88-8.64,3.88c-3.74,0-6.54-1.01-8.39-3.04
	c-1.85-2.02-2.78-4.83-2.78-8.43V38.03c0-4.72,1.29-8.42,3.88-11.09c2.58-2.67,6.52-4,11.8-4h3.71L235.36,9.7L235.36,9.7z
	 M235.44,34.24h-2.78c-2.64,0-3.96,1.4-3.96,4.22v20.82c0,1.46,0.84,2.19,2.53,2.19c1.69,0,3.09-0.34,4.22-1.01L235.44,34.24
	L235.44,34.24z"/>
<path class="st4" d="M259.98,16.53h4.22v56.15h-4.22V16.53z M282.06,16.53h4.64l-12.23,28.16l12.82,27.99h-4.72l-12.73-27.82
	L282.06,16.53z"/>
<path class="st4" d="M299.09,18.72c-1.85,0-2.78-1.04-2.78-3.12s0.93-3.12,2.78-3.12c1.85,0,2.78,1.04,2.78,3.12
	C301.87,17.69,300.95,18.72,299.09,18.72z M296.98,25.22h4.22v47.47h-4.22V25.22z"/>
<path class="st4" d="M319.66,27.41c3.93-1.57,7.46-2.36,10.58-2.36s5.7,0.99,7.76,2.95c2.05,1.97,3.08,4.72,3.08,8.26v36.42h-4.22
	V36.26c0-4.89-2.42-7.34-7.25-7.34c-3.04,0-6.32,0.84-9.86,2.53v41.23h-4.22V25.22h4.13V27.41z"/>
<path class="st4" d="M383.99,26.48h-2.78c-1.69,0-3.12,0.53-4.3,1.6c1.91,2.08,2.87,4.86,2.87,8.34v6.58c0,3.77-1.12,6.72-3.37,8.85
	c-2.25,2.14-5.62,3.2-10.12,3.2c-3.65,0-5.48,1.72-5.48,5.14c0,1.52,0.46,2.63,1.39,3.33c0.93,0.7,2.49,1.05,4.68,1.05h4.97
	c7.53,0,11.3,3.2,11.3,9.61v0.84c0,6.8-4.89,10.2-14.67,10.2h-3.46c-5.34,0-9.53-0.79-12.56-2.36v-4.22
	c3.43,1.85,7.61,2.78,12.56,2.78h3.37c7.02,0,10.54-2.11,10.54-6.32V74.2c0-1.97-0.46-3.43-1.39-4.38c-0.93-0.95-2.8-1.43-5.61-1.43
	h-5.06c-3.15,0-5.59-0.62-7.34-1.85c-1.74-1.24-2.61-3.01-2.61-5.31v-1.35c0-1.4,0.39-2.57,1.18-3.5c0.79-0.93,1.8-1.56,3.04-1.9
	c-5.56-1.46-8.34-5.28-8.34-11.47v-6.58c0-3.77,1.12-6.72,3.37-8.85s5.44-3.2,9.57-3.2c4.13,0,7.38,0.81,9.74,2.45
	c1.01-3.09,3.43-4.64,7.25-4.64H384L383.99,26.48L383.99,26.48z M375.56,43.01v-6.58c0-2.75-0.73-4.82-2.19-6.2
	c-1.46-1.38-3.82-2.06-7.08-2.06c-3.26,0-5.62,0.69-7.08,2.06c-1.46,1.38-2.19,3.44-2.19,6.2v6.58c0,2.76,0.73,4.82,2.19,6.2
	c1.46,1.38,3.82,2.06,7.08,2.06c3.26,0,5.62-0.69,7.08-2.06C374.83,47.83,375.56,45.76,375.56,43.01z"/>
<g>
	<path class="st5" d="M86.95,29.13c-0.63-1.05-15.7-25.69-32.62-28.7C46.27-1,37.06,1.15,27.67,6.65
		c-7.63,4.48-15.16,11.02-21.21,18.43c-3.31,4.05-6.63,8.8-4.72,14.29c-1.6,1.84-3.78,6.91,2.12,19.09
		c0.25,0.53,0.79,0.83,1.33,0.83c0.22,0,0.44-0.05,0.65-0.15c0.74-0.36,1.04-1.24,0.69-1.98C0.41,44.51,3.95,41.29,4.27,41.05
		c0.72-0.35,0.93-1.17,0.59-1.9C3.04,35.21,5,31.56,8.76,26.95c5.83-7.13,13.07-13.43,20.41-17.74c8.76-5.14,17.28-7.17,24.63-5.86
		c10.24,1.82,20.17,12.93,25.81,20.41c-6.25-3.74-12.93-5.93-19.98-6.54c-7.78-0.67-15.97,0.6-24.36,3.76
		c-14.19,5.35-23.91,14.17-24.32,14.54c-0.57,0.52-0.64,1.39-0.16,2c0.48,0.61,1.35,0.75,1.99,0.32c0.08-0.06,2.09-1.36,4.16-0.44
		c1.77,0.79,4.13,3.43,5.31,11.52c0.12,0.81,0.87,1.37,1.68,1.25c0.81-0.12,1.37-0.87,1.25-1.68c-1.12-7.6-3.5-12.25-7.09-13.82
		c-0.32-0.14-0.64-0.25-0.96-0.34c4.1-3.04,10.93-7.5,19.25-10.62c18.13-6.81,34.38-4.35,48.31,7.31c0.56,0.46,1.37,0.46,1.92-0.01
		C87.19,30.55,87.32,29.75,86.95,29.13z"/>
	<path class="st5" d="M74.32,42.04c-0.26,0-0.52,0.01-0.78,0.03c-1.1-0.05-2.23,0.05-3.34,0.31c-4.66,1.09-8.11,4.68-8.98,8.81
		c-5.11-0.51-9.95,0.21-12.15,0.62c-1.74-3.37-5.25-5.68-9.29-5.68c-0.27,0-0.53,0.01-0.8,0.03c-1.16-0.05-2.35,0.05-3.55,0.31
		c-5.48,1.21-9.38,5.49-9.71,10.19c-1.92,0.51-6.08,1.61-10.24,2.76C3.6,62.7,3.33,63.06,2.93,63.6c-0.62,0.84-1.98,4.59-2.74,6.74
		c-0.27,0.77,0.14,1.62,0.91,1.89c0.16,0.06,0.33,0.08,0.49,0.08c0.61,0,1.18-0.38,1.4-0.99c0.79-2.24,1.79-4.89,2.21-5.75
		c1.89-0.79,11.63-3.5,20.81-5.92c0.69,2.61,2.47,4.77,5.05,6.14c1.78,0.94,3.8,1.43,5.88,1.43c0.76,0,1.54-0.07,2.31-0.2
		c0.17,0.01,0.35,0.01,0.53,0.01c4.37,0,8.12-2.7,9.68-6.51c0.5-1.22,0.78-2.55,0.78-3.94c0-0.66-0.06-1.3-0.18-1.92
		c4.7-0.81,19.12-2.44,23.62,6.8c2.51,5.16,1.36,11.25-2.81,14.82c-4.61,3.95-11.23,3.64-17.68-0.85c-0.34-0.23-0.73-0.31-1.11-0.24
		c-0.37,0.07-0.72,0.28-0.96,0.61c-0.47,0.67-0.3,1.6,0.37,2.06c3.94,2.74,7.91,4.13,11.8,4.13c0.03,0,0.06,0,0.09,0
		c3.54-0.02,6.8-1.22,9.42-3.46c4.57-3.92,6.25-10.25,4.46-16.06c4.04-1.32,6.98-5.3,6.98-9.99C84.23,46.73,79.78,42.04,74.32,42.04
		z M64.16,51.63c0.12-0.5,0.29-1,0.51-1.47c-0.11,0.5-0.18,1.01-0.22,1.53C64.35,51.68,64.25,51.65,64.16,51.63z M67.38,52.49
		c0-4.13,3.11-7.49,6.94-7.49c3.83,0,6.94,3.36,6.94,7.49c0,3.46-2.19,6.38-5.15,7.23c-1.97-3.73-5.17-5.95-8.73-7.21
		C67.38,52.51,67.38,52.5,67.38,52.49z M29.75,53.66c-0.27,0.93-0.42,1.91-0.42,2.93c0,2.04,0.59,3.95,1.61,5.56
		c-1.09-0.95-1.83-2.15-2.12-3.5C28.43,56.92,28.81,55.18,29.75,53.66z M32.3,56.59c0-4.13,3.36-7.49,7.49-7.49s7.49,3.36,7.49,7.49
		s-3.36,7.49-7.49,7.49S32.3,60.71,32.3,56.59z"/>
	<circle class="st5" cx="74.32" cy="52.52" r="2.07"/>
	<ellipse class="st5" cx="39.78" cy="56.59" rx="2.07" ry="2.07"/>
	<path class="st5" d="M28.68,46.64c0.03,0,0.07,0,0.1,0c0.37,0,0.73-0.14,1.01-0.39c2.14-1.97,10.08-5.2,12.97-6.28
		c0.76-0.29,1.15-1.13,0.87-1.9c-2.02-5.53-3.3-5.53-4-5.53c-1.62,0-11.28,5.08-12.89,6.42c-2.16,1.82-0.87,4.98,0.89,7.14
		C27.89,46.41,28.27,46.61,28.68,46.64z M28.65,41.23c1.46-1.22,8.44-4.72,10.63-5.57c0.28,0.45,0.66,1.21,1.03,2.06
		c-2.64,1.04-8.11,3.29-11.17,5.31C28.67,42.17,28.45,41.4,28.65,41.23z"/>
	<path class="st5" d="M63.88,33.42c-0.32,1.14-0.56,2.28-0.57,2.32c-0.15,0.71,0.24,1.43,0.93,1.69l7.23,2.75
		c0.17,0.07,0.35,0.1,0.53,0.1c0.06,0,0.13,0,0.19-0.01c0.06,0.01,0.11,0.01,0.17,0.01c0.72,0,1.35-0.52,1.46-1.25
		c0.06-0.36,1.31-8.89-4.79-15.58c-0.55-0.6-1.49-0.65-2.1-0.1c-0.6,0.55-0.65,1.49-0.1,2.1c1.67,1.83,2.68,3.86,3.28,5.76
		c-1.77-0.6-3.62-1.03-3.65-1.03C64.84,29.96,64.31,31.88,63.88,33.42z M70.85,36.77l-4.35-1.65c0.16-0.66,0.34-1.31,0.5-1.78
		c1.18,0.34,3.04,0.94,3.78,1.29C70.86,35.08,70.89,35.95,70.85,36.77z"/>
</g>
</svg>
